<?xml version="1.0" encoding="UTF-8" standalone="no"?>
<svg
   xmlns:dc="http://purl.org/dc/elements/1.1/"
   xmlns:cc="http://creativecommons.org/ns#"
   xmlns:rdf="http://www.w3.org/1999/02/22-rdf-syntax-ns#"
   xmlns:svg="http://www.w3.org/2000/svg"
   xmlns="http://www.w3.org/2000/svg"
   width="48" 
   height="48" 
   viewBox="0 0 24 24"
>
    <!-- draw an eye dropper -->
    <polyline
        points="
            11 12,
            12 8,
            10 7,
            10.5 5,
            13 6,
            14 4,
            15 3,
            16 3,
            17 4,
            17 7.5,
            19 8,
            18 9.7,
            16 9,
            15 11,
            14.5 12,
            14 13,
            13.5 14,
            13 15,
            11.5 16.5,
            11 17,
            10.5 15,
            10.5 14,
            11 12
        "
        stroke="black"
        fill="none"
        stroke-linejoin="round"
        stroke-linecap="round"
        stroke-width="1"
    />
    <!--
    <polyline
        points="
            13 6,
            17 7.5
        "
        stroke="black"
        fill="none"
        stroke-linejoin="round"
        stroke-linecap="round"
        stroke-width="1"
    />
    -->
    <polyline
        points="
            12 7.8,
            15.5 9
        "
        stroke="black"
        fill="none"
        stroke-linejoin="round"
        stroke-linecap="round"
        stroke-width="1"
    />
    <circle
        cx="11.5"
        cy="15"
        r="1"
        fill="black"
    />
    <!-- ink blot -->
        <circle
        cx="10"
        cy="20"
        r="2"
        fill="black"
    />
</svg>

