<?xml version="1.0" encoding="UTF-8" standalone="no"?>
<svg
   xmlns:dc="http://purl.org/dc/elements/1.1/"
   xmlns:cc="http://creativecommons.org/ns#"
   xmlns:rdf="http://www.w3.org/1999/02/22-rdf-syntax-ns#"
   xmlns:svg="http://www.w3.org/2000/svg"
   xmlns="http://www.w3.org/2000/svg"
   width="48" 
   height="48" 
   viewBox="0 0 24 24"
>
    <!-- rotating arrow -->
    <path 
        d="
            M 10 5
            a 6 7 0 0 0 0 15
        "
        stroke="black"
        stroke-linejoin="round"
        fill="none"
        stroke-width="0.8"
    />
    <path 
        d="
            M 5.5 3
            l 5 2
        "
        stroke="black"
        stroke-linejoin="round"
        fill="none"
        stroke-width="0.8"
    />
    <path 
        d="
            M 7 9
            l 3 -4
        "
        stroke="black"
        stroke-linejoin="round"
        fill="none"
        stroke-width="0.8"
    />
    
    <!-- another rotating arrow -->
    <path 
        d="
            M 14 5
            a 6 7 0 0 1 0 15
        "
        stroke="black"
        stroke-linejoin="round"
        fill="none"
        stroke-width="0.8"
    />
    <path 
        d="
            M 14 20
            l 2 -3
        "
        stroke="black"
        stroke-linejoin="round"
        fill="none"
        stroke-width="0.8"
    />
    <path 
        d="
            M 14 20
            l 3 2
        "
        stroke="black"
        stroke-linejoin="round"
        fill="none"
        stroke-width="0.8"
    />
    
    <!-- lock -->
    <polygon
        points="8.5 11, 16.5 11, 16.5 16, 8.5 16"
        stroke="grey"
        stroke-linejoin="round"
        fill="none"
        stroke-width="0.9"
    />
    <path 
        d="
            M 8 12.5
            l 9 0
        "
        stroke="grey"
        stroke-linejoin="round"
        fill="none"
        stroke-width="0.8"
    />
    <path 
        d="
            M 8 14.5
            l 9 0
        "
        stroke="grey"
        stroke-linejoin="round"
        fill="none"
        stroke-width="0.8"
    />
    <path 
        d="
            M 9.1 11
            a 6.5 25 0 0 1 6.5 0
        "
        stroke="grey"
        stroke-linejoin="round"
        fill="none"
        stroke-width="1.2"
    />
</svg>

