<?xml version="1.0" encoding="UTF-8" standalone="no"?>
<svg
   xmlns:dc="http://purl.org/dc/elements/1.1/"
   xmlns:cc="http://creativecommons.org/ns#"
   xmlns:rdf="http://www.w3.org/1999/02/22-rdf-syntax-ns#"
   xmlns:svg="http://www.w3.org/2000/svg"
   xmlns="http://www.w3.org/2000/svg"
   width="48" 
   height="48" 
   viewBox="0 0 24 24"
>
    <!-- draw a cube -->
    <polyline
        points="
            11 6,
            14 4,
            17 6,
            14 8,
            11 6,
            11 10,
            14 12,
            17 10,
            17 6
        "
        stroke="black"
        fill="none"
        stroke-linejoin="round"
        stroke-linecap="round"
        stroke-width="1"
    />
    <polyline
        points="
            14 8,
            14 12
        "
        stroke="black"
        fill="none"
        stroke-linejoin="round"
        stroke-linecap="round"
        stroke-width="1"
    />

    <!-- draw another cube -->
    <polyline
        points="
            17 10,
            20 8,
            23 10,
            20 12,
            17 10,
            17 14,
            20 16,
            23 14,
            23 10
        "
        stroke="black"
        fill="none"
        stroke-linejoin="round"
        stroke-linecap="round"
        stroke-width="1"
    />
    <polyline
        points="
            20 12,
            20 16
        "
        stroke="black"
        fill="none"
        stroke-linejoin="round"
        stroke-linecap="round"
        stroke-width="1"
    />   
    
    <!-- draw a hand -->
    <polyline
        points="
            3 17,
            4 13,
            5 12,
            5.5 14,
            6 13,
            7.5 10,
            8.4 8.8,
            10 9,
            8 12.8,
            8 13,
            9 13.5,
            10 15,
            11 16.5,
            9.5 20,
            3 17
            "
        stroke="black"
        fill="none"
        stroke-linejoin="round"
        stroke-linecap="round"
        stroke-width="1"
    />
    <polyline
        points="
            8 13,
            7 14.5
            "
        stroke="black"
        fill="none"
        stroke-linejoin="round"
        stroke-linecap="round"
        stroke-width="0.8"
    />
    <polyline
        points="
            9 14,
            8 16
            "
        stroke="black"
        fill="none"
        stroke-linejoin="round"
        stroke-linecap="round"
        stroke-width="0.8"
    />
    <polyline
        points="
            10 15,
            9 17
            "
        stroke="black"
        fill="none"
        stroke-linejoin="round"
        stroke-linecap="round"
        stroke-width="0.8"
    />
</svg>

