{
    "asset" : {
        "generator" : "Khronos glTF Blender I/O v1.3.48",
        "version" : "2.0"
    },
    "scene" : 0,
    "scenes" : [
        {
            "name" : "Scene",
            "nodes" : [
                1
            ]
        }
    ],
    "nodes" : [
        {
            "mesh" : 0,
            "name" : "Cylinder.002",
            "rotation" : [
                -0.5,
                -0.5,
                -0.5,
                0.5000000596046448
            ],
            "scale" : [
                0.14669407904148102,
                1.2693473100662231,
                0.1702132374048233
            ],
            "translation" : [
                -5.270501613616943,
                0.04617437720298767,
                0.22909915447235107
            ]
        },
        {
            "children" : [
                0
            ],
            "mesh" : 1,
            "name" : "Plane.021",
            "rotation" : [
                0.6931689381599426,
                -0.1039537712931633,
                -0.10721585899591446,
                0.7051349878311157
            ],
            "scale" : [
                0.1552855223417282,
                0.1552855223417282,
                0.1790664792060852
            ]
        }
    ],
    "materials" : [
        {
            "doubleSided" : true,
            "emissiveFactor" : [
                0,
                0,
                0
            ],
            "name" : "Material.001",
            "pbrMetallicRoughness" : {
                "baseColorTexture" : {
                    "index" : 0,
                    "texCoord" : 0
                },
                "metallicFactor" : 0,
                "roughnessFactor" : 0.5
            }
        }
    ],
    "meshes" : [
        {
            "name" : "Cylinder.001",
            "primitives" : [
                {
                    "attributes" : {
                        "POSITION" : 0,
                        "NORMAL" : 1,
                        "TEXCOORD_0" : 2
                    },
                    "indices" : 3,
                    "material" : 0
                }
            ]
        },
        {
            "name" : "Plane.001",
            "primitives" : [
                {
                    "attributes" : {
                        "POSITION" : 4,
                        "NORMAL" : 5,
                        "TEXCOORD_0" : 6
                    },
                    "indices" : 7,
                    "material" : 0
                }
            ]
        }
    ],
    "textures" : [
        {
            "source" : 0
        }
    ],
    "images" : [
        {
            "bufferView" : 4,
            "mimeType" : "image/png",
            "name" : "sopwithCameltexture"
        }
    ],
    "accessors" : [
        {
            "bufferView" : 0,
            "componentType" : 5126,
            "count" : 336,
            "max" : [
                11.658978462219238,
                1,
                13.573025703430176
            ],
            "min" : [
                -11.714700698852539,
                -1.0093439817428589,
                -13.219633102416992
            ],
            "type" : "VEC3"
        },
        {
            "bufferView" : 1,
            "componentType" : 5126,
            "count" : 336,
            "type" : "VEC3"
        },
        {
            "bufferView" : 2,
            "componentType" : 5126,
            "count" : 336,
            "type" : "VEC2"
        },
        {
            "bufferView" : 3,
            "componentType" : 5123,
            "count" : 588,
            "type" : "SCALAR"
        },
        {
            "bufferView" : 5,
            "componentType" : 5126,
            "count" : 3390,
            "max" : [
                7.885414123535156,
                10.502655982971191,
                3.5361056327819824
            ],
            "min" : [
                -6.150808334350586,
                -10.86178207397461,
                -2.4511611461639404
            ],
            "type" : "VEC3"
        },
        {
            "bufferView" : 6,
            "componentType" : 5126,
            "count" : 3390,
            "type" : "VEC3"
        },
        {
            "bufferView" : 7,
            "componentType" : 5126,
            "count" : 3390,
            "type" : "VEC2"
        },
        {
            "bufferView" : 8,
            "componentType" : 5123,
            "count" : 5760,
            "type" : "SCALAR"
        }
    ],
    "bufferViews" : [
        {
            "buffer" : 0,
            "byteLength" : 4032,
            "byteOffset" : 0
        },
        {
            "buffer" : 0,
            "byteLength" : 4032,
            "byteOffset" : 4032
        },
        {
            "buffer" : 0,
            "byteLength" : 2688,
            "byteOffset" : 8064
        },
        {
            "buffer" : 0,
            "byteLength" : 1176,
            "byteOffset" : 10752
        },
        {
            "buffer" : 0,
            "byteLength" : 279348,
            "byteOffset" : 11928
        },
        {
            "buffer" : 0,
            "byteLength" : 40680,
            "byteOffset" : 291276
        },
        {
            "buffer" : 0,
            "byteLength" : 40680,
            "byteOffset" : 331956
        },
        {
            "buffer" : 0,
            "byteLength" : 27120,
            "byteOffset" : 372636
        },
        {
            "buffer" : 0,
            "byteLength" : 11520,
            "byteOffset" : 399756
        }
    ],
    "buffers" : [
        {
            "byteLength" : 411276,
            "uri" : "data:application/octet-stream;base64,"
        }
    ]
}
