{
    "asset" : {
        "generator" : "Khronos glTF Blender I/O v1.3.48",
        "version" : "2.0"
    },
    "scene" : 0,
    "scenes" : [
        {
            "name" : "Scene",
            "nodes" : [
                0
            ]
        }
    ],
    "nodes" : [
        {
            "mesh" : 0,
            "name" : "f16",
            "translation" : [
                0,
                0.8084896802902222,
                1.0505038499832153
            ]
        }
    ],
    "materials" : [
        {
            "doubleSided" : true,
            "emissiveFactor" : [
                0,
                0,
                0
            ],
            "name" : "Material.003",
            "pbrMetallicRoughness" : {
                "baseColorTexture" : {
                    "index" : 0,
                    "texCoord" : 0
                },
                "metallicFactor" : 0,
                "roughnessFactor" : 0.5
            }
        }
    ],
    "meshes" : [
        {
            "name" : "Plane.002",
            "primitives" : [
                {
                    "attributes" : {
                        "POSITION" : 0,
                        "NORMAL" : 1,
                        "TEXCOORD_0" : 2
                    },
                    "indices" : 3,
                    "material" : 0
                }
            ]
        }
    ],
    "textures" : [
        {
            "source" : 0
        }
    ],
    "images" : [
        {
            "bufferView" : 4,
            "mimeType" : "image/png",
            "name" : "f16-2"
        }
    ],
    "accessors" : [
        {
            "bufferView" : 0,
            "componentType" : 5126,
            "count" : 4059,
            "max" : [
                7.6259307861328125,
                6.920935153961182,
                12.243583679199219
            ],
            "min" : [
                -7.613643646240234,
                -0.9196876287460327,
                -11.702935218811035
            ],
            "type" : "VEC3"
        },
        {
            "bufferView" : 1,
            "componentType" : 5126,
            "count" : 4059,
            "type" : "VEC3"
        },
        {
            "bufferView" : 2,
            "componentType" : 5126,
            "count" : 4059,
            "type" : "VEC2"
        },
        {
            "bufferView" : 3,
            "componentType" : 5123,
            "count" : 14550,
            "type" : "SCALAR"
        }
    ],
    "bufferViews" : [
        {
            "buffer" : 0,
            "byteLength" : 48708,
            "byteOffset" : 0
        },
        {
            "buffer" : 0,
            "byteLength" : 48708,
            "byteOffset" : 48708
        },
        {
            "buffer" : 0,
            "byteLength" : 32472,
            "byteOffset" : 97416
        },
        {
            "buffer" : 0,
            "byteLength" : 29100,
            "byteOffset" : 129888
        },
        {
            "buffer" : 0,
            "byteLength" : 425669,
            "byteOffset" : 158988
        }
    ],
    "buffers" : [
        {
            "byteLength" : 584660,
            "uri" : "data:application/octet-stream;base64,"
        }
    ]
}
