{
    "asset" : {
        "generator" : "Khronos glTF Blender I/O v1.3.48",
        "version" : "2.0"
    },
    "scene" : 0,
    "scenes" : [
        {
            "name" : "Scene",
            "nodes" : [
                0,
                1,
                2,
                3,
                4
            ]
        }
    ],
    "nodes" : [
        {
            "mesh" : 0,
            "name" : "Plane.028",
            "rotation" : [
                -0.49999943375587463,
                -0.5000005960464478,
                0.5000007152557373,
                -0.4999992847442627
            ],
            "scale" : [
                0.6758909225463867,
                0.26470136642456055,
                0.26470136642456055
            ],
            "translation" : [
                0.0007312893867492676,
                0.27365532517433167,
                -0.03188098967075348
            ]
        },
        {
            "mesh" : 1,
            "name" : "Cylinder.020",
            "rotation" : [
                -0.4999999403953552,
                -0.5000000596046448,
                0.5000001192092896,
                -0.49999991059303284
            ],
            "scale" : [
                0.26674363017082214,
                0.1251845359802246,
                0.26674363017082214
            ],
            "translation" : [
                0.5680057406425476,
                -0.013464957475662231,
                0.9872792959213257
            ]
        },
        {
            "mesh" : 2,
            "name" : "Cylinder.021",
            "rotation" : [
                -0.4999999403953552,
                -0.5000000596046448,
                0.5000001192092896,
                -0.49999991059303284
            ],
            "scale" : [
                0.26674363017082214,
                0.1251845359802246,
                0.26674363017082214
            ],
            "translation" : [
                0.5680057406425476,
                -0.013464957475662231,
                -0.9933630228042603
            ]
        },
        {
            "mesh" : 3,
            "name" : "Cylinder.022",
            "rotation" : [
                0.5000001788139343,
                -0.4999998211860657,
                0.49999985098838806,
                0.5000001788139343
            ],
            "scale" : [
                0.26674363017082214,
                0.1251845359802246,
                0.26674363017082214
            ],
            "translation" : [
                -0.5622627139091492,
                -0.013464957475662231,
                -0.9933630228042603
            ]
        },
        {
            "mesh" : 4,
            "name" : "Cylinder.023",
            "rotation" : [
                0.5000001788139343,
                -0.4999998211860657,
                0.49999985098838806,
                0.5000001788139343
            ],
            "scale" : [
                0.26674363017082214,
                0.1251845359802246,
                0.26674363017082214
            ],
            "translation" : [
                -0.5622627139091492,
                -0.013464957475662231,
                0.9872792959213257
            ]
        }
    ],
    "materials" : [
        {
            "doubleSided" : true,
            "emissiveFactor" : [
                0,
                0,
                0
            ],
            "name" : "Material",
            "pbrMetallicRoughness" : {
                "baseColorTexture" : {
                    "index" : 0,
                    "texCoord" : 0
                },
                "metallicFactor" : 0,
                "roughnessFactor" : 0.5
            }
        },
        {
            "doubleSided" : true,
            "emissiveFactor" : [
                0,
                0,
                0
            ],
            "name" : "Material.001",
            "pbrMetallicRoughness" : {
                "baseColorTexture" : {
                    "index" : 1,
                    "texCoord" : 0
                },
                "metallicFactor" : 0,
                "roughnessFactor" : 0.5
            }
        }
    ],
    "meshes" : [
        {
            "name" : "Plane.028",
            "primitives" : [
                {
                    "attributes" : {
                        "POSITION" : 0,
                        "NORMAL" : 1,
                        "TEXCOORD_0" : 2
                    },
                    "indices" : 3,
                    "material" : 0
                }
            ]
        },
        {
            "name" : "Cylinder.021",
            "primitives" : [
                {
                    "attributes" : {
                        "POSITION" : 4,
                        "NORMAL" : 5,
                        "TEXCOORD_0" : 6
                    },
                    "indices" : 7,
                    "material" : 1
                }
            ]
        },
        {
            "name" : "Cylinder.024",
            "primitives" : [
                {
                    "attributes" : {
                        "POSITION" : 8,
                        "NORMAL" : 9,
                        "TEXCOORD_0" : 10
                    },
                    "indices" : 7,
                    "material" : 1
                }
            ]
        },
        {
            "name" : "Cylinder.025",
            "primitives" : [
                {
                    "attributes" : {
                        "POSITION" : 11,
                        "NORMAL" : 12,
                        "TEXCOORD_0" : 13
                    },
                    "indices" : 7,
                    "material" : 1
                }
            ]
        },
        {
            "name" : "Cylinder.026",
            "primitives" : [
                {
                    "attributes" : {
                        "POSITION" : 14,
                        "NORMAL" : 15,
                        "TEXCOORD_0" : 16
                    },
                    "indices" : 7,
                    "material" : 1
                }
            ]
        }
    ],
    "textures" : [
        {
            "source" : 0
        },
        {
            "source" : 1
        }
    ],
    "images" : [
        {
            "bufferView" : 4,
            "mimeType" : "image/png",
            "name" : "GTR"
        },
        {
            "bufferView" : 9,
            "mimeType" : "image/png",
            "name" : "gtr-wheel"
        }
    ],
    "accessors" : [
        {
            "bufferView" : 0,
            "componentType" : 5126,
            "count" : 3761,
            "max" : [
                2.4500036239624023,
                2.8062400817871094,
                1.6107503175735474
            ],
            "min" : [
                -2.5395476818084717,
                -2.8062400817871094,
                -1.7183362245559692
            ],
            "type" : "VEC3"
        },
        {
            "bufferView" : 1,
            "componentType" : 5126,
            "count" : 3761,
            "type" : "VEC3"
        },
        {
            "bufferView" : 2,
            "componentType" : 5126,
            "count" : 3761,
            "type" : "VEC2"
        },
        {
            "bufferView" : 3,
            "componentType" : 5123,
            "count" : 12300,
            "type" : "SCALAR"
        },
        {
            "bufferView" : 5,
            "componentType" : 5126,
            "count" : 1454,
            "max" : [
                1,
                1.0652122497558594,
                1
            ],
            "min" : [
                -1,
                -0.9234250783920288,
                -1
            ],
            "type" : "VEC3"
        },
        {
            "bufferView" : 6,
            "componentType" : 5126,
            "count" : 1454,
            "type" : "VEC3"
        },
        {
            "bufferView" : 7,
            "componentType" : 5126,
            "count" : 1454,
            "type" : "VEC2"
        },
        {
            "bufferView" : 8,
            "componentType" : 5123,
            "count" : 2964,
            "type" : "SCALAR"
        },
        {
            "bufferView" : 10,
            "componentType" : 5126,
            "count" : 1454,
            "max" : [
                1,
                1.0652122497558594,
                1
            ],
            "min" : [
                -1,
                -0.9234250783920288,
                -1
            ],
            "type" : "VEC3"
        },
        {
            "bufferView" : 11,
            "componentType" : 5126,
            "count" : 1454,
            "type" : "VEC3"
        },
        {
            "bufferView" : 12,
            "componentType" : 5126,
            "count" : 1454,
            "type" : "VEC2"
        },
        {
            "bufferView" : 13,
            "componentType" : 5126,
            "count" : 1454,
            "max" : [
                1,
                1.0652122497558594,
                1
            ],
            "min" : [
                -1,
                -0.9234250783920288,
                -1
            ],
            "type" : "VEC3"
        },
        {
            "bufferView" : 14,
            "componentType" : 5126,
            "count" : 1454,
            "type" : "VEC3"
        },
        {
            "bufferView" : 15,
            "componentType" : 5126,
            "count" : 1454,
            "type" : "VEC2"
        },
        {
            "bufferView" : 16,
            "componentType" : 5126,
            "count" : 1454,
            "max" : [
                1,
                1.0652122497558594,
                1
            ],
            "min" : [
                -1,
                -0.9234250783920288,
                -1
            ],
            "type" : "VEC3"
        },
        {
            "bufferView" : 17,
            "componentType" : 5126,
            "count" : 1454,
            "type" : "VEC3"
        },
        {
            "bufferView" : 18,
            "componentType" : 5126,
            "count" : 1454,
            "type" : "VEC2"
        }
    ],
    "bufferViews" : [
        {
            "buffer" : 0,
            "byteLength" : 45132,
            "byteOffset" : 0
        },
        {
            "buffer" : 0,
            "byteLength" : 45132,
            "byteOffset" : 45132
        },
        {
            "buffer" : 0,
            "byteLength" : 30088,
            "byteOffset" : 90264
        },
        {
            "buffer" : 0,
            "byteLength" : 24600,
            "byteOffset" : 120352
        },
        {
            "buffer" : 0,
            "byteLength" : 131135,
            "byteOffset" : 144952
        },
        {
            "buffer" : 0,
            "byteLength" : 17448,
            "byteOffset" : 276088
        },
        {
            "buffer" : 0,
            "byteLength" : 17448,
            "byteOffset" : 293536
        },
        {
            "buffer" : 0,
            "byteLength" : 11632,
            "byteOffset" : 310984
        },
        {
            "buffer" : 0,
            "byteLength" : 5928,
            "byteOffset" : 322616
        },
        {
            "buffer" : 0,
            "byteLength" : 100252,
            "byteOffset" : 328544
        },
        {
            "buffer" : 0,
            "byteLength" : 17448,
            "byteOffset" : 428796
        },
        {
            "buffer" : 0,
            "byteLength" : 17448,
            "byteOffset" : 446244
        },
        {
            "buffer" : 0,
            "byteLength" : 11632,
            "byteOffset" : 463692
        },
        {
            "buffer" : 0,
            "byteLength" : 17448,
            "byteOffset" : 475324
        },
        {
            "buffer" : 0,
            "byteLength" : 17448,
            "byteOffset" : 492772
        },
        {
            "buffer" : 0,
            "byteLength" : 11632,
            "byteOffset" : 510220
        },
        {
            "buffer" : 0,
            "byteLength" : 17448,
            "byteOffset" : 521852
        },
        {
            "buffer" : 0,
            "byteLength" : 17448,
            "byteOffset" : 539300
        },
        {
            "buffer" : 0,
            "byteLength" : 11632,
            "byteOffset" : 556748
        }
    ],
    "buffers" : [
        {
            "byteLength" : 568380,
            "uri" : "data:application/octet-stream;base64,"
        }
    ]
}
